<svg id="SvgjsSvg1008" xmlns="http://www.w3.org/2000/svg" version="1.1" xmlns:xlink="http://www.w3.org/1999/xlink" xmlns:svgjs="http://svgjs.com/svgjs" width="43" height="43" viewBox="0 0 43 43"><title>link</title><desc>Created with Avocode.</desc><defs id="SvgjsDefs1009"></defs><path id="SvgjsPath1010" d="M964.909 7404.2L954.16946 7414.94046L954.169 7414.94L952.021 7417.089999999999L962.7628199999999 7427.8281799999995L962.761 7427.83L964.909 7429.98L977.796 7417.089999999999L975.648 7414.94L964.90657 7425.683929999999L956.31779 7417.0900599999995L967.0559999999999 7406.349999999999ZM971.352 7402.06L982.09281 7391.31826L990.68411 7399.90738L979.9440000000001 7410.64999L982.0910000000001 7412.7999899999995L994.9790000000002 7399.909989999999L993.9025000000001 7398.832489999999L993.9050000000002 7398.829989999999L982.0910000000002 7387.019989999999L980.6502400000003 7388.4627599999985L969.2040000000003 7399.909989999998ZM979.944 7399.91L964.909 7414.94L967.056 7417.089999999999L982.091 7402.0599999999995Z " fill="#313943" fill-opacity="1" transform="matrix(1,0,0,1,-952,-7387)"></path></svg>