<?xml version="1.0" encoding="UTF-8" ?>
<!DOCTYPE svg PUBLIC "-//W3C//DTD SVG 1.1//EN" "http://www.w3.org/Graphics/SVG/1.1/DTD/svg11.dtd">
<svg width="67pt" height="69pt" viewBox="0 0 67 69" version="1.1" xmlns="http://www.w3.org/2000/svg">
<g id="#66837eff">
<path fill="#66837e" opacity="1.00" d=" M 59.39 0.00 L 59.69 0.00 C 61.47 2.64 64.43 4.33 67.00 6.18 L 67.00 6.63 C 66.01 7.05 65.16 7.67 64.45 8.48 C 57.80 15.71 53.18 25.05 52.92 35.00 C 57.11 35.00 61.30 35.00 65.49 35.00 C 65.51 46.16 65.49 57.32 65.50 68.49 C 56.91 68.50 48.33 68.50 39.75 68.49 C 39.80 58.34 39.65 48.19 39.81 38.05 C 40.50 23.15 49.94 10.74 59.39 0.00 Z" />
<path fill="#66837e" opacity="1.00" d=" M 0.00 37.78 C 1.66 23.29 9.87 10.54 19.94 0.38 C 22.35 2.28 24.73 4.22 27.09 6.18 C 19.62 14.00 13.72 23.92 13.41 35.00 C 17.61 35.00 21.80 35.00 26.00 35.00 C 25.86 46.33 26.30 57.68 25.75 69.00 L 0.00 69.00 L 0.00 37.78 Z" />
</g>
</svg>
